<?xml version="1.0" standalone="no"?>
<!DOCTYPE svg PUBLIC "-//W3C//DTD SVG 20010904//EN"
 "http://www.w3.org/TR/2001/REC-SVG-20010904/DTD/svg10.dtd">
<svg version="1.0" xmlns="http://www.w3.org/2000/svg"
 width="282.000000pt" height="278.000000pt" viewBox="0 0 282.000000 278.000000"
 preserveAspectRatio="xMidYMid meet">

<g transform="translate(0.000000,278.000000) scale(0.100000,-0.100000)"
fill="#000000" stroke="none">
<path d="M1300 2061 c-45 -14 -464 -259 -496 -290 -19 -18 -36 -49 -43 -75
-14 -57 -15 -527 -1 -578 6 -20 25 -51 43 -68 32 -30 429 -262 495 -289 18 -8
49 -11 72 -8 46 6 478 249 526 296 19 18 36 49 43 75 14 57 15 527 1 578 -6
20 -25 51 -43 68 -41 38 -455 276 -505 290 -42 11 -57 11 -92 1z m125 -142
c30 -17 57 -35 60 -39 3 -5 -26 -27 -65 -50 l-71 -41 -66 38 c-36 21 -66 43
-65 48 1 13 112 75 135 75 9 0 42 -14 72 -31z m-182 -202 c48 -27 98 -49 110
-49 13 0 74 29 137 66 63 36 121 66 128 66 17 0 142 -69 142 -79 0 -3 -93 -60
-206 -125 -160 -92 -210 -117 -223 -109 -9 5 -100 58 -203 118 -104 59 -188
111 -188 114 0 4 33 26 73 48 l72 42 35 -21 c19 -11 74 -43 123 -71z m-130
-237 l177 -102 0 -239 c0 -131 -3 -239 -7 -239 -5 0 -37 17 -73 38 l-65 38 -5
150 c-3 82 -8 154 -12 160 -4 6 -64 44 -133 83 l-125 73 0 90 0 90 33 -20 c17
-11 112 -66 210 -122z m717 52 l0 -88 -122 -71 c-72 -41 -128 -80 -135 -94 -8
-16 -13 -72 -13 -161 l0 -137 -69 -41 c-38 -22 -72 -40 -75 -40 -3 0 -6 107
-6 238 l0 237 208 122 c114 67 208 122 210 122 1 1 2 -39 2 -87z m-810 -395
l0 -89 -57 32 c-86 47 -93 59 -93 150 l0 78 75 -41 75 -42 0 -88z m810 85 c0
-89 0 -89 -92 -141 l-58 -32 0 85 0 85 68 40 c37 23 70 41 75 41 4 0 7 -35 7
-78z"/>
</g>
</svg>
